<svg xmlns="http://www.w3.org/2000/svg" viewBox="0 0 200 240" width="32" height="38">
  <defs>
    <linearGradient id="sg" x1="0" y1="0" x2="0" y2="1">
      <stop offset="0%" stop-color="#8B0000"/>
      <stop offset="100%" stop-color="#1a0000"/>
    </linearGradient>
  </defs>
  <path d="M10,10 Q10,5 15,5 L185,5 Q190,5 190,10 L190,140 Q190,180 100,235 Q10,180 10,140 Z" fill="url(#sg)" stroke="#d4af37" stroke-width="2"/>
  <path d="M18,14 Q18,10 22,10 L178,10 Q182,10 182,14 L182,138 Q182,172 100,222 Q18,172 18,138 Z" fill="#0d0000" stroke="#d4af37" stroke-width="0.8" stroke-opacity="0.7"/>
  <!-- Dragon head -->
  <path d="M72,115 Q70,90 85,78 Q100,68 115,78 Q130,90 128,115 Q120,130 100,132 Q80,130 72,115 Z" fill="#cc0000" stroke="#1a0000" stroke-width="1"/>
  <path d="M88,118 Q100,128 112,118 Q110,132 100,136 Q90,132 88,118 Z" fill="#bb0000"/>
  <!-- Horns -->
  <path d="M80,85 Q70,60 75,48 Q82,58 85,78 Z" fill="#aa0000" stroke="#d4af37" stroke-width="0.8"/>
  <circle cx="75" cy="48" r="2" fill="#d4af37"/>
  <path d="M120,85 Q130,60 125,48 Q118,58 115,78 Z" fill="#aa0000" stroke="#d4af37" stroke-width="0.8"/>
  <circle cx="125" cy="48" r="2" fill="#d4af37"/>
  <!-- Eyes -->
  <circle cx="88" cy="95" r="4" fill="#d4af37"/>
  <circle cx="112" cy="95" r="4" fill="#d4af37"/>
  <!-- Flame -->
  <path d="M97,133 Q100,142 103,133 Q105,138 100,144 Q95,138 97,133 Z" fill="#ff6600"/>
  <!-- Crossed swords -->
  <line x1="80" y1="215" x2="95" y2="195" stroke="#d4af37" stroke-width="1.2"/>
  <line x1="120" y1="215" x2="105" y2="195" stroke="#d4af37" stroke-width="1.2"/>
  <text x="100" y="228" text-anchor="middle" font-family="serif" font-size="7" fill="#d4af37">DR</text>
</svg>
